<?xml version="1.0" standalone="no"?>
<!DOCTYPE svg PUBLIC "-//W3C//DTD SVG 20010904//EN"
 "http://www.w3.org/TR/2001/REC-SVG-20010904/DTD/svg10.dtd">
<svg version="1.0" xmlns="http://www.w3.org/2000/svg"
 width="32.000000pt" height="32.000000pt" viewBox="0 0 32.000000 32.000000"
 preserveAspectRatio="xMidYMid meet">

<g transform="translate(0.000000,32.000000) scale(0.100000,-0.100000)"
fill="#000000" stroke="none">
<path d="M196 301 c-3 -5 1 -14 9 -21 25 -20 17 -30 -15 -18 -77 26 -150 -27
-150 -109 0 -36 6 -50 29 -73 33 -33 69 -45 107 -36 15 4 39 20 55 36 23 22
29 38 29 70 0 23 -5 50 -10 60 -7 13 -7 21 1 25 6 4 13 -2 16 -14 3 -12 9 -21
14 -21 15 0 10 16 -11 35 -20 18 -21 18 -36 -1 -15 -18 -15 -18 -9 9 3 17 1
35 -6 43 -7 9 -8 14 -1 14 6 0 14 -5 17 -10 3 -6 18 -8 33 -4 24 5 25 4 11 -8
-15 -13 -15 -15 3 -37 14 -18 22 -21 30 -13 12 12 10 13 -14 16 -18 2 -21 25
-4 32 30 12 17 27 -19 21 -19 -3 -37 -1 -40 4 -8 11 -32 12 -39 0z m-29 -58
c3 -7 -12 -29 -32 -49 -35 -34 -36 -37 -19 -55 25 -28 -3 -25 -40 4 -24 19
-28 28 -22 51 11 46 101 85 113 49z m41 -22 c2 -14 9 -21 17 -17 8 3 17 1 19
-3 8 -12 -28 -83 -53 -105 -12 -11 -21 -25 -21 -33 0 -27 -65 -8 -99 28 -12
13 -21 31 -21 42 0 18 1 18 26 -2 28 -22 74 -28 74 -11 0 6 -7 13 -15 16 -23
9 -18 27 15 59 17 16 30 35 30 43 0 22 25 8 28 -17z m31 -118 c-13 -25 -47
-49 -55 -40 -3 3 9 21 25 40 17 19 32 41 32 48 1 8 3 6 6 -5 3 -10 -1 -30 -8
-43z"/>
</g>
</svg>
